<?xml version="1.0" encoding="UTF-8"?> <svg xmlns="http://www.w3.org/2000/svg" xmlns:xlink="http://www.w3.org/1999/xlink" version="1.1" id="Layer_1" x="0px" y="0px" viewBox="0 0 360 360" style="enable-background:new 0 0 360 360;" xml:space="preserve"> <style type="text/css"> .st0{fill:#FFFFFF;} </style> <path class="st0" d="M360,180C360,80.7,279.3,0,180,0S0,80.7,0,180s80.7,180,180,180S360,279.3,360,180z M180,354 C84,354,6,276,6,180C6,84.1,84,6,180,6s174,78,174,174S275.9,354,180,354z"></path> <path class="st0" d="M100.4,89.8l52.1,90.2l-52.1,90.2h159.2l-52-90.2l52-90.2H100.4z M243.2,95.8L180,132.3l-63.1-36.5H243.2z M183,149.5l17.6,30.5L183,210.4V149.5z M113.8,101l63.2,36.5l-21,36.5L113.8,101z M177,149.5v60.9L159.4,180L177,149.5z M155.9,186 l21,36.5v0L113.8,259L155.9,186z M116.8,264.2l63.2-36.4l63.1,36.4L116.8,264.2z M246.2,259L183,222.5v0l21.1-36.5L246.2,259z M204.1,174L183,137.5l63.2-36.4L204.1,174z"></path> </svg> 