<svg width="100" height="100" viewBox="0 0 100 100" fill="none" xmlns="http://www.w3.org/2000/svg">
<path opacity="0.8" fill-rule="evenodd" clip-rule="evenodd" d="M50 100C22.4 100 0 77.6 0 50C0 22.4 22.4 0 50 0C77.6 0 100 22.4 100 50C100 77.6 77.6 100 50 100ZM50 1.7C23.4 1.7 1.7 23.4 1.7 50C1.7 76.6 23.4 98.3 50 98.3C76.6 98.3 98.3 76.6 98.3 50C98.3 23.4 76.6 1.7 50 1.7ZM57.6 50L72.1 75.1H27.9L42.4 50L27.9 24.9H72.1L57.6 50ZM67.5 26.7H32.4L50 36.8L67.5 26.7ZM49.1 41.6L44.2 50.1L49.1 58.5V41.6ZM32.4 73.5H67.4L49.9 63.3L32.4 73.5ZM50.8 58.6L55.7 50.2L50.8 41.7V58.6ZM56.6 48.5L68.3 28.2L50.8 38.3L56.6 48.5ZM43.2 48.5L49.1 38.4L31.5 28.3L43.2 48.5ZM43.2 51.8L31.5 72.1L49.1 61.9L43.2 51.8ZM56.5 51.8L50.7 62L68.2 72.1L56.5 51.8Z" fill="black"/>
</svg>
